<?xml version="1.0" encoding="UTF-8" standalone="no"?>
<svg
   xmlns:dc="http://purl.org/dc/elements/1.1/"
   xmlns:cc="http://creativecommons.org/ns#"
   xmlns:rdf="http://www.w3.org/1999/02/22-rdf-syntax-ns#"
   xmlns:svg="http://www.w3.org/2000/svg"
   xmlns="http://www.w3.org/2000/svg"
   xmlns:sodipodi="http://sodipodi.sourceforge.net/DTD/sodipodi-0.dtd"
   xmlns:inkscape="http://www.inkscape.org/namespaces/inkscape"
   version="1.1"
   id="Layer_1"
   x="0px"
   y="0px"
   width="100%"
   viewBox="0 0 1024 1024"
   enable-background="new 0 0 1024 1024"
   xml:space="preserve"
   sodipodi:docname="icon.svg"
   inkscape:version="1.0.1 (3bc2e813f5, 2020-09-07)"><metadata
   id="metadata138"><rdf:RDF><cc:Work
       rdf:about=""><dc:format>image/svg+xml</dc:format><dc:type
         rdf:resource="http://purl.org/dc/dcmitype/StillImage" /></cc:Work></rdf:RDF></metadata><defs
   id="defs136" /><sodipodi:namedview
   pagecolor="#ffffff"
   bordercolor="#666666"
   borderopacity="1"
   objecttolerance="10"
   gridtolerance="10"
   guidetolerance="10"
   inkscape:pageopacity="0"
   inkscape:pageshadow="2"
   inkscape:window-width="1864"
   inkscape:window-height="1020"
   id="namedview134"
   showgrid="false"
   inkscape:zoom="0.77246094"
   inkscape:cx="512"
   inkscape:cy="563.78255"
   inkscape:window-x="38"
   inkscape:window-y="0"
   inkscape:window-maximized="0"
   inkscape:current-layer="Layer_1" />

<path
   fill="#FA980B"
   opacity="1.000000"
   stroke="none"
   d=" M512.049500,82.158066   C514.045593,82.105354 516.041626,82.006752 518.037720,82.006569   C599.016724,81.999176 679.995728,81.975082 760.974731,82.012665   C797.122009,82.029434 829.476929,93.681831 858.328003,114.987549   C894.413147,141.635452 916.006165,177.609192 924.712830,221.403610   C926.092529,228.343399 926.876831,235.523758 926.888855,242.594666   C927.033325,327.405579 926.979980,412.216858 926.452148,497.504333   C789.801392,497.987061 653.676880,497.973938 517.552490,498.088989   C513.209412,498.092651 511.808960,497.013306 511.895660,492.528351   C512.175659,478.038239 511.998352,463.539337 512.000244,449.043823   C512.016357,326.748566 512.033020,204.453323 512.049500,82.158066  M645.134338,315.637207   C647.256836,316.420319 649.376404,317.876801 651.502197,317.885834   C685.119263,318.029144 718.737183,317.986664 752.354858,317.986542   C764.836670,317.986481 777.318542,317.991882 789.800354,317.980316   C792.135254,317.978149 794.697205,318.279419 794.992920,314.389038   C794.992920,314.389038 795.156555,313.967651 795.632263,313.299683   C795.477905,304.548492 795.323547,295.797272 795.022766,286.178619   C795.521118,281.712189 792.167053,283.074768 790.041687,283.072388   C743.387268,283.020233 696.732727,283.032593 650.078247,283.032593   C648.459351,283.032593 646.840454,283.032593 645.235229,283.032593   C645.063843,284.733002 644.947327,285.889526 644.360474,287.714142   C644.521423,296.465271 644.682373,305.216370 645.007080,314.389038   C645.007080,314.389038 645.041931,314.839935 645.134338,315.637207  z"
   id="path77" />
<path
   fill="#FA980B"
   opacity="1.000000"
   stroke="none"
   d=" M90.157974,497.950470   C90.105255,496.287659 90.006569,494.624878 90.006424,492.962067   C89.999611,411.484222 89.905167,330.006226 90.044083,248.528595   C90.109901,209.924240 103.098885,175.755707 126.932343,145.636887   C151.961792,114.006660 184.613052,94.302956 223.726761,85.385704   C232.960876,83.280487 242.626373,82.170265 252.097778,82.143593   C336.407349,81.906113 420.717865,82.014877 505.504456,82.547844   C505.987152,219.531906 505.974030,355.989716 506.088989,492.447418   C506.092621,496.790344 505.013214,498.185486 500.528625,498.104401   C485.371582,497.830383 470.206573,498.001740 455.044586,497.999725   C333.415710,497.983734 211.786835,497.966980 90.157974,497.950470  M281.387238,373.683350   C291.110016,373.781250 300.832764,373.904938 310.555725,373.932251   C311.410706,373.934631 312.267456,373.305908 313.611938,372.310394   C313.735718,356.187775 314.000732,340.064240 313.893585,323.943176   C313.863098,319.362244 315.322388,317.826813 319.926636,317.900940   C334.398529,318.134064 348.880219,318.155121 363.349182,317.843842   C366.239258,317.781677 369.089966,315.888306 371.976715,313.922272   C371.976715,303.683105 371.976715,293.443939 371.976715,282.723389   C351.834534,282.723389 332.452118,282.723389 312.740479,282.723389   C312.740479,262.965088 312.740479,243.705917 312.740479,224.376251   C302.031128,224.376251 291.668640,224.376251 280.789612,224.376251   C280.789612,244.126740 280.789612,263.502930 280.789612,283.190857   C261.005890,283.190857 241.744385,283.190857 222.041428,283.190857   C222.041428,293.953064 222.041428,304.396271 222.178894,315.596283   C225.093399,316.393005 227.997375,317.830109 230.924179,317.878235   C245.402588,318.116180 259.888885,318.116486 274.368225,317.909271   C278.789276,317.846039 280.145386,319.451660 280.089600,323.743561   C279.899170,338.389862 279.988007,353.040314 280.055023,367.688782   C280.063080,369.450531 280.590149,371.209869 281.387238,373.683350  z"
   id="path79" />
<path
   fill="#FA980B"
   opacity="1.000000"
   stroke="none"
   d=" M505.950409,919.842041   C504.287628,919.894714 502.624878,919.993286 500.962097,919.993408   C419.819519,920.000549 338.676941,919.978455 257.534363,920.005127   C182.557892,920.029785 113.858147,867.065735 94.998688,792.180969   C91.624451,778.783020 89.920151,765.251831 89.941628,751.398438   C90.068970,669.256470 90.014824,587.114136 90.547943,504.495667   C227.531937,504.012939 363.989716,504.026031 500.447357,503.911041   C504.790253,503.907379 506.185394,504.987030 506.104340,509.471466   C505.830383,524.628479 506.001740,539.793518 505.999725,554.955505   C505.983673,676.584351 505.966919,798.213196 505.950409,919.842041  M323.070465,709.349609   C324.182678,707.928528 325.164459,706.377808 326.427460,705.106567   C337.347168,694.115601 348.371826,683.227966 359.193359,672.141785   C360.345764,670.961182 360.398407,668.707092 361.225708,666.210388   C354.128510,658.434692 347.031311,650.658997 339.720673,642.649414   C325.234863,657.166077 311.505371,670.924805 297.415497,685.044678   C283.514282,670.901733 269.794006,656.942932 255.803909,642.709595   C248.405350,650.128540 241.469223,657.025024 234.645721,664.031189   C234.060135,664.632446 234.222382,665.962036 233.550980,667.407104   C234.304626,669.039429 234.684189,671.039246 235.870300,672.246826   C246.755707,683.329102 257.807098,694.248108 268.731812,705.292175   C270.065948,706.640869 270.939117,708.445496 271.761230,710.650940   C259.929993,722.489258 248.062790,734.292236 236.324600,746.222107   C235.182877,747.382446 234.838074,749.326843 233.646591,751.330933   C234.068619,752.665100 234.106186,754.368530 234.975250,755.273315   C240.502640,761.027161 246.113907,766.709900 251.907562,772.194275   C254.647324,774.787781 257.352844,774.287109 260.116089,771.468018   C271.173767,760.187073 282.512604,749.180786 293.516876,737.848999   C296.630981,734.642151 298.581879,734.876404 301.575958,737.952026   C312.478394,749.151306 323.720276,760.020264 334.617462,771.224487   C337.969391,774.670959 340.835724,774.551086 343.973053,771.473999   C349.196411,766.350952 354.442444,761.241394 359.421875,755.887146   C360.474243,754.755554 360.419983,752.594788 361.171082,750.178711   C360.292847,748.775146 359.634796,747.155762 358.502563,746.001282   C346.703522,733.970947 334.828278,722.015320 323.070465,709.349609  z"
   id="path81" />
<path
   fill="#E2E2E2"
   opacity="1.000000"
   stroke="none"
   d=" M926.833374,583.997620   C926.882690,612.021545 926.932007,640.045471 926.449280,668.533813   C886.533936,668.998779 847.150452,668.943909 807.767578,669.074707   C803.169983,669.089966 800.586548,668.376343 800.763550,662.896301   C800.824951,660.993774 798.240479,659.005920 796.405640,657.043030   C746.343079,657.038391 696.739319,657.047729 646.760498,657.091797   C645.261536,658.974060 643.087402,660.892395 643.206482,662.655823   C643.596680,668.432251 640.747559,669.096741 635.953857,669.080322   C594.691772,668.939026 553.429016,668.996948 512.100342,668.531067   C512.078308,640.043396 512.122375,612.020020 512.624695,583.997742   C650.999756,583.998474 788.916565,583.998047 926.833374,583.997620  z"
   id="path83" />
<path
   fill="#E5E5E5"
   opacity="1.000000"
   stroke="none"
   d=" M926.908203,583.534424   C788.916565,583.998047 650.999756,583.998474 512.557495,583.533508   C512.031982,556.817993 512.031982,530.567749 512.031982,504.003784   C650.705688,504.003784 788.771545,504.003784 926.837524,504.003784   C926.885986,530.359619 926.934509,556.715454 926.908203,583.534424  z"
   id="path85" />
<path
   fill="#DDDDDD"
   opacity="1.000000"
   stroke="none"
   d=" M796.864441,657.057007   C798.240479,659.005920 800.824951,660.993774 800.763550,662.896301   C800.586548,668.376343 803.169983,669.089966 807.767578,669.074707   C847.150452,668.943909 886.533936,668.998779 926.375305,668.996948   C926.882935,694.354004 926.932434,719.712280 926.449463,745.534790   C888.332336,745.999390 850.747620,746.020996 813.162964,745.988159   C800.468201,745.977051 802.075134,747.324158 802.018860,734.802795   C802.001404,730.921814 801.268982,727.555908 796.868347,725.666016   C795.594360,725.234436 794.609497,725.035339 793.624451,725.035034   C746.083435,725.019348 698.542480,725.012634 651.001526,725.061096   C649.614868,725.062500 648.228943,725.667664 646.498169,726.055786   C640.953369,729.190613 642.051819,734.304932 642.011536,739.018250   C641.952087,745.983521 641.985291,745.997314 635.084412,745.997864   C594.111877,746.001221 553.139343,745.997864 512.100342,745.532593   C512.078125,719.710632 512.122253,694.353027 512.166382,668.995361   C553.429016,668.996948 594.691772,668.939026 635.953857,669.080322   C640.747559,669.096741 643.596680,668.432251 643.206482,662.655823   C643.087402,660.892395 645.261536,658.974060 646.715698,657.554504   C647.045898,668.227966 647.045898,678.473572 647.045898,688.734131   C697.374390,688.734131 746.930725,688.734131 796.864441,688.734131   C796.864441,677.951843 796.864441,667.504456 796.864441,657.057007  z"
   id="path87" />
<path
   fill="#D8D8D8"
   opacity="1.000000"
   stroke="none"
   d=" M923.160095,786.053284   C920.994324,800.221924 915.644165,813.230347 908.758057,825.686096   C907.754333,827.501648 906.905151,829.402649 905.525024,831.631897   C902.736145,833.629089 900.254517,835.086060 898.136780,836.955200   C896.950134,838.002625 896.253662,839.677979 895.529968,841.164612   C892.493225,847.403198 887.769043,849.187622 880.731995,849.173828   C757.877197,848.932068 635.021729,848.997986 512.100708,848.532593   C512.078857,827.711426 512.122803,807.354614 512.624878,786.998657   C646.649536,786.999634 780.215881,787.006287 913.782288,786.960510   C916.908325,786.959412 920.034180,786.368896 923.160095,786.053284  z"
   id="path89" />
<path
   fill="#D6D6D6"
   opacity="1.000000"
   stroke="none"
   d=" M512.166443,848.997009   C635.021729,848.997986 757.877197,848.932068 880.731995,849.173828   C887.769043,849.187622 892.493225,847.403198 895.529968,841.164612   C896.253662,839.677979 896.950134,838.002625 898.136780,836.955200   C900.254517,835.086060 902.736145,833.629089 905.435181,831.997803   C898.478699,847.333313 887.801697,860.196533 875.760864,871.944702   C849.186462,897.873108 817.268372,913.166626 780.667664,918.726074   C774.616577,919.645203 768.418457,919.935608 762.287781,919.940979   C679.169495,920.013611 596.051147,919.984497 512.469543,919.449463   C512.059692,895.611328 512.113037,872.304138 512.166443,848.997009  z"
   id="path91" />
<path
   fill="#DADADA"
   opacity="1.000000"
   stroke="none"
   d=" M923.452271,785.793091   C920.034180,786.368896 916.908325,786.959412 913.782288,786.960510   C780.215881,787.006287 646.649536,786.999634 512.558105,786.534302   C512.077637,772.711731 512.122192,759.354248 512.166809,745.996826   C553.139343,745.997864 594.111877,746.001221 635.084412,745.997864   C641.985291,745.997314 641.952087,745.983521 642.011536,739.018250   C642.051819,734.304932 640.953369,729.190613 646.555298,726.430298   C646.913147,727.494629 646.869446,728.248779 646.458130,729.133667   C645.735718,729.960693 645.078552,730.654236 645.072021,731.353821   C644.995728,739.596741 644.950500,747.841797 645.099854,756.082581   C645.117676,757.066223 646.335754,758.028076 646.998779,759.000000   C647.000000,759.000000 647.000000,759.002441 647.113525,759.386719   C648.558594,760.180420 649.888306,760.939148 651.221985,760.946106   C667.085083,761.028870 682.949036,761.024597 698.812317,760.956604   C700.209534,760.950623 701.604187,760.336304 703.468628,760.003906   C716.291565,760.003723 728.645752,760.004150 741.314575,760.276367   C758.932434,760.689270 776.235718,760.857483 793.539246,760.887268   C794.359253,760.888672 795.181335,759.662048 796.211548,758.885254   C796.681824,758.560242 796.877319,758.306641 797.390747,757.887695   C798.170654,757.104248 798.904724,756.439087 798.911804,755.766235   C798.996887,747.697571 799.028625,739.626892 798.900513,731.559509   C798.886841,730.698181 797.776123,729.854248 797.114258,728.628296   C797.088562,727.499878 797.122925,726.745544 797.157349,725.991150   C801.268982,727.555908 802.001404,730.921814 802.018860,734.802795   C802.075134,747.324158 800.468201,745.977051 813.162964,745.988159   C850.747620,746.020996 888.332336,745.999390 926.375061,745.998047   C927.752075,759.327881 926.287720,772.472534 923.452271,785.793091  z"
   id="path93" />
<path
   fill="#C07508"
   opacity="1.000000"
   stroke="none"
   d=" M512.100342,745.532593   C512.122192,759.354248 512.077637,772.711731 512.099854,786.533508   C512.122803,807.354614 512.078857,827.711426 512.100708,848.532593   C512.113037,872.304138 512.059692,895.611328 512.006470,919.375610   C510.274841,919.877808 508.542969,919.922852 506.380737,919.904907   C505.966919,798.213196 505.983673,676.584351 505.999725,554.955505   C506.001740,539.793518 505.830383,524.628479 506.104340,509.471466   C506.185394,504.987030 504.790253,503.907379 500.447357,503.911041   C363.989716,504.026031 227.531937,504.012939 90.616104,504.034576   C90.116005,502.304932 90.073982,500.560059 90.094963,498.382843   C211.786835,497.966980 333.415710,497.983734 455.044586,497.999725   C470.206573,498.001740 485.371582,497.830383 500.528625,498.104401   C505.013214,498.185486 506.092621,496.790344 506.088989,492.447418   C505.974030,355.989716 505.987152,219.531906 505.965515,82.616028   C507.695129,82.115952 509.439972,82.073967 511.617157,82.095024   C512.033020,204.453323 512.016357,326.748566 512.000244,449.043823   C511.998352,463.539337 512.175659,478.038239 511.895660,492.528351   C511.808960,497.013306 513.209412,498.092651 517.552490,498.088989   C653.676880,497.973938 789.801392,497.987061 926.383911,497.965393   C926.884094,499.683136 926.926147,501.416107 926.902832,503.576416   C788.771545,504.003784 650.705688,504.003784 512.031982,504.003784   C512.031982,530.567749 512.031982,556.817993 512.099243,583.532410   C512.122375,612.020020 512.078308,640.043396 512.100342,668.531067   C512.122253,694.353027 512.078125,719.710632 512.100342,745.532593  z"
   id="path95" />
<path
   fill="#FFFEFE"
   opacity="1.000000"
   stroke="none"
   d=" M644.830811,287.046051   C644.947327,285.889526 645.063843,284.733002 645.235229,283.032593   C646.840454,283.032593 648.459351,283.032593 650.078247,283.032593   C696.732727,283.032593 743.387268,283.020233 790.041687,283.072388   C792.167053,283.074768 795.521118,281.712189 795.031250,287.073608   C795.078674,296.634979 795.117615,305.301300 795.156555,313.967651   C795.156555,313.967651 794.992920,314.389038 794.512207,314.670258   C744.368286,314.914307 694.705139,314.877136 645.041931,314.839935   C645.041931,314.839935 645.007080,314.389038 644.984863,313.714905   C644.918762,304.375885 644.874817,295.710968 644.830811,287.046051  z"
   id="path97" />
<path
   fill="#D7820A"
   opacity="1.000000"
   stroke="none"
   d=" M645.088135,315.238586   C694.705139,314.877136 744.368286,314.914307 794.494873,314.895630   C794.697205,318.279419 792.135254,317.978149 789.800354,317.980316   C777.318542,317.991882 764.836670,317.986481 752.354858,317.986542   C718.737183,317.986664 685.119263,318.029144 651.502197,317.885834   C649.376404,317.876801 647.256836,316.420319 645.088135,315.238586  z"
   id="path99" />
<path
   fill="#D7820A"
   opacity="1.000000"
   stroke="none"
   d=" M644.595703,287.380096   C644.874817,295.710968 644.918762,304.375885 644.903015,313.504150   C644.682373,305.216370 644.521423,296.465271 644.595703,287.380096  z"
   id="path101" />
<path
   fill="#D7820A"
   opacity="1.000000"
   stroke="none"
   d=" M795.394409,313.633667   C795.117615,305.301300 795.078674,296.634979 795.104492,287.507355   C795.323547,295.797272 795.477905,304.548492 795.394409,313.633667  z"
   id="path103" />
<path
   fill="#FFFEFE"
   opacity="1.000000"
   stroke="none"
   d=" M222.041428,314.839478   C222.041428,304.396271 222.041428,293.953064 222.041428,283.190857   C241.744385,283.190857 261.005890,283.190857 280.789612,283.190857   C280.789612,263.502930 280.789612,244.126740 280.789612,224.376251   C291.668640,224.376251 302.031128,224.376251 312.740479,224.376251   C312.740479,243.705917 312.740479,262.965088 312.740479,282.723389   C332.452118,282.723389 351.834534,282.723389 371.976715,282.723389   C371.976715,293.443939 371.976715,303.683105 371.504303,314.436829   C351.771606,314.951385 332.511292,314.951385 313.123352,314.951385   C313.123352,334.712799 313.123352,353.841553 313.123352,372.970306   C312.267456,373.305908 311.410706,373.934631 310.555725,373.932251   C300.832764,373.904938 291.110016,373.781250 281.203613,372.864929   C281.019989,353.122833 281.019989,334.199158 281.019989,314.839478   C260.969360,314.839478 241.505402,314.839478 222.041428,314.839478  z"
   id="path105" />
<path
   fill="#D7820A"
   opacity="1.000000"
   stroke="none"
   d=" M313.367645,372.640350   C313.123352,353.841553 313.123352,334.712799 313.123352,314.951385   C332.511292,314.951385 351.771606,314.951385 371.495361,314.895355   C369.089966,315.888306 366.239258,317.781677 363.349182,317.843842   C348.880219,318.155121 334.398529,318.134064 319.926636,317.900940   C315.322388,317.826813 313.863098,319.362244 313.893585,323.943176   C314.000732,340.064240 313.735718,356.187775 313.367645,372.640350  z"
   id="path107" />
<path
   fill="#D7820A"
   opacity="1.000000"
   stroke="none"
   d=" M222.110168,315.217896   C241.505402,314.839478 260.969360,314.839478 281.019989,314.839478   C281.019989,334.199158 281.019989,353.122833 280.948334,372.508423   C280.590149,371.209869 280.063080,369.450531 280.055023,367.688782   C279.988007,353.040314 279.899170,338.389862 280.089600,323.743561   C280.145386,319.451660 278.789276,317.846039 274.368225,317.909271   C259.888885,318.116486 245.402588,318.116180 230.924179,317.878235   C227.997375,317.830109 225.093399,316.393005 222.110168,315.217896  z"
   id="path109" />
<path
   fill="#FFFEFE"
   opacity="1.000000"
   stroke="none"
   d=" M234.037262,666.953308   C234.222382,665.962036 234.060135,664.632446 234.645721,664.031189   C241.469223,657.025024 248.405350,650.128540 255.803909,642.709595   C269.794006,656.942932 283.514282,670.901733 297.415497,685.044678   C311.505371,670.924805 325.234863,657.166077 339.720673,642.649414   C347.031311,650.658997 354.128510,658.434692 360.785278,666.714478   C347.003265,680.612488 333.661713,694.006348 320.140961,707.580139   C321.260315,708.551575 322.117249,709.295227 322.974213,710.038940   C334.828278,722.015320 346.703522,733.970947 358.502563,746.001282   C359.634796,747.155762 360.292847,748.775146 360.717682,750.678833   C353.505524,758.175293 346.746735,765.171692 339.241821,772.940491   C324.744934,758.251953 311.031403,744.357056 296.484863,729.618103   C282.585236,743.538696 268.797211,757.347473 253.869308,772.297852   C247.413345,765.304138 240.768356,758.105713 234.123352,750.907227   C234.838074,749.326843 235.182877,747.382446 236.324600,746.222107   C248.062790,734.292236 259.929993,722.489258 272.183777,710.228149   C274.182220,708.545959 275.109283,707.502197 273.094543,705.532593   C260.009430,692.740356 247.042725,679.827026 234.037262,666.953308  z"
   id="path111" />
<path
   fill="#E18D12"
   opacity="1.000000"
   stroke="none"
   d=" M233.884979,751.119080   C240.768356,758.105713 247.413345,765.304138 253.869308,772.297852   C268.797211,757.347473 282.585236,743.538696 296.484863,729.618103   C311.031403,744.357056 324.744934,758.251953 339.241821,772.940491   C346.746735,765.171692 353.505524,758.175293 360.569946,751.043579   C360.419983,752.594788 360.474243,754.755554 359.421875,755.887146   C354.442444,761.241394 349.196411,766.350952 343.973053,771.473999   C340.835724,774.551086 337.969391,774.670959 334.617462,771.224487   C323.720276,760.020264 312.478394,749.151306 301.575958,737.952026   C298.581879,734.876404 296.630981,734.642151 293.516876,737.848999   C282.512604,749.180786 271.173767,760.187073 260.116089,771.468018   C257.352844,774.287109 254.647324,774.787781 251.907562,772.194275   C246.113907,766.709900 240.502640,761.027161 234.975250,755.273315   C234.106186,754.368530 234.068619,752.665100 233.884979,751.119080  z"
   id="path113" />
<path
   fill="#E18D12"
   opacity="1.000000"
   stroke="none"
   d=" M233.794113,667.180176   C247.042725,679.827026 260.009430,692.740356 273.094543,705.532593   C275.109283,707.502197 274.182220,708.545959 272.316101,709.922119   C270.939117,708.445496 270.065948,706.640869 268.731812,705.292175   C257.807098,694.248108 246.755707,683.329102 235.870300,672.246826   C234.684189,671.039246 234.304626,669.039429 233.794113,667.180176  z"
   id="path115" />
<path
   fill="#E18D12"
   opacity="1.000000"
   stroke="none"
   d=" M323.022339,709.694275   C322.117249,709.295227 321.260315,708.551575 320.140961,707.580139   C333.661713,694.006348 347.003265,680.612488 360.653015,667.084778   C360.398407,668.707092 360.345764,670.961182 359.193359,672.141785   C348.371826,683.227966 337.347168,694.115601 326.427460,705.106567   C325.164459,706.377808 324.182678,707.928528 323.022339,709.694275  z"
   id="path117" />
<path
   fill="#787878"
   opacity="1.000000"
   stroke="none"
   d=" M796.405640,657.043030   C796.864441,667.504456 796.864441,677.951843 796.864441,688.734131   C746.930725,688.734131 697.374390,688.734131 647.045898,688.734131   C647.045898,678.473572 647.045898,668.227966 647.090698,657.519653   C696.739319,657.047729 746.343079,657.038391 796.405640,657.043030  z"
   id="path119" />
<path
   fill="#787878"
   opacity="1.000000"
   stroke="none"
   d=" M646.825684,729.002991   C646.869446,728.248779 646.913147,727.494629 646.899780,726.365906   C648.228943,725.667664 649.614868,725.062500 651.001526,725.061096   C698.542480,725.012634 746.083435,725.019348 793.624451,725.035034   C794.609497,725.035339 795.594360,725.234436 796.868347,725.666016   C797.122925,726.745544 797.088562,727.499878 797.052246,729.093079   C797.019043,738.918640 796.987854,747.905396 796.492371,756.933960   C746.366333,756.947754 696.704590,756.919739 647.024170,756.431519   C646.945496,746.981812 646.885559,737.992432 646.825684,729.002991  z"
   id="path121" />
<path
   fill="#D6D6D6"
   opacity="1.000000"
   stroke="none"
   d=" M647.042847,756.891724   C696.704590,756.919739 746.366333,756.947754 796.507080,757.211426   C796.993103,757.632263 797.000122,757.817322 797.007202,758.002441   C796.877319,758.306641 796.681824,758.560242 795.742676,758.883545   C778.944763,759.003479 762.824829,758.969849 746.705383,759.046631   C744.802124,759.055725 742.901733,759.670532 741.000000,760.004578   C728.645752,760.004150 716.291565,760.003723 703.155029,759.730591   C700.565491,759.306091 698.758362,759.026184 696.950745,759.022461   C680.300537,758.988586 663.650269,759.002441 647.000000,759.002441   C647.000000,759.002441 647.000000,759.000000 647.002197,758.648560   C647.017273,757.828674 647.030029,757.360229 647.042847,756.891724  z"
   id="path123" />
<path
   fill="#D8D8D8"
   opacity="1.000000"
   stroke="none"
   d=" M647.113525,759.386719   C663.650269,759.002441 680.300537,758.988586 696.950745,759.022461   C698.758362,759.026184 700.565491,759.306091 702.686401,759.731201   C701.604187,760.336304 700.209534,760.950623 698.812317,760.956604   C682.949036,761.024597 667.085083,761.028870 651.221985,760.946106   C649.888306,760.939148 648.558594,760.180420 647.113525,759.386719  z"
   id="path125" />
<path
   fill="#D8D8D8"
   opacity="1.000000"
   stroke="none"
   d=" M741.314575,760.276367   C742.901733,759.670532 744.802124,759.055725 746.705383,759.046631   C762.824829,758.969849 778.944763,759.003479 795.533508,759.005615   C795.181335,759.662048 794.359253,760.888672 793.539246,760.887268   C776.235718,760.857483 758.932434,760.689270 741.314575,760.276367  z"
   id="path127" />
<path
   fill="#D8D8D8"
   opacity="1.000000"
   stroke="none"
   d=" M647.024170,756.431519   C647.030029,757.360229 647.017273,757.828674 647.000977,758.648560   C646.335754,758.028076 645.117676,757.066223 645.099854,756.082581   C644.950500,747.841797 644.995728,739.596741 645.072021,731.353821   C645.078552,730.654236 645.735718,729.960693 646.458130,729.133667   C646.885559,737.992432 646.945496,746.981812 647.024170,756.431519  z"
   id="path129" />
<path
   fill="#D8D8D8"
   opacity="1.000000"
   stroke="none"
   d=" M797.390747,757.887695   C797.000122,757.817322 796.993103,757.632263 796.971436,757.169678   C796.987854,747.905396 797.019043,738.918640 797.112305,729.467041   C797.776123,729.854248 798.886841,730.698181 798.900513,731.559509   C799.028625,739.626892 798.996887,747.697571 798.911804,755.766235   C798.904724,756.439087 798.170654,757.104248 797.390747,757.887695  z"
   id="path131" />
</svg>
